Patient4_TMGait_0pt5_02_right_35_EMG.mot
version=1
nRows=23
nColumns=33
inDegrees=no
endheader
time	1LAddLong	2LGlutMax	3LGlutMed	4LIliopsoas	5LSemiMemb	6LBicFemLong	7LRecFem	8LVastMed	9LVastLat	10LGasMed	11LTibAnt	12lTibPost	13LPeroneusLong	14LSol	15LExtDigLong	16LFlexDigLong	17RAddLong	18RGlutMax	19RGlutMed	20RIliopsoas	21RSemiMemb	22RBicFemLong	23RRecFem	24RVastMed	25RVastLat	26RGasMed	27RTibAnt	28RTibPost	29RPeroneusLong	30RSol	31RExtDigLong	32RFlexDigLong
46.19	0.010071	-0.70892	0.016174	-0.03067	0.017548	-0.010529	-0.25024	-0.007629	0.35446	-0.020142	-0.14664	-0.014801	-0.097351	-0.22064	0.013123	-0.001526	-0.037384	-0.45364	-0.90195	0.006714	0.16937	-0.012817	0.56808	-0.056458	-0.22858	-0.029144	0.54581	-0.026245	-0.1564	-0.18997	0.00473	-0.014648
46.191	0.014496	-0.74677	0.002441	-0.011902	-0.013123	-0.009308	-0.18631	-0.00885	0.33417	-0.003815	0.01297	-0.012665	-0.13626	-0.22461	-0.054779	-0.006256	-0.074005	-0.57281	0.12436	-0.072021	0.17334	-0.11231	0.30045	-0.014801	-0.19272	-0.027161	1.2058	-0.019531	-0.042877	-0.43137	0.001373	-0.015717
46.192	0.007782	-0.84274	0.002594	-0.005188	-0.006409	-0.009003	-0.13016	-0.015411	0.31876	-0.004272	0.12451	-0.013123	-0.16464	-0.18112	0.16373	-0.002289	-0.036316	-0.67154	0.62943	-0.16052	-0.112	-0.13565	0.19241	-0.042419	-0.12299	-0.01709	0.91812	-0.0177	0.37338	-0.71487	-0.001526	-0.007935
46.193	0.011292	-0.91751	-0.011292	0.019989	0.02243	-0.007477	-0.037994	-0.018311	0.31204	-0.009003	0.20065	-0.010986	-0.13458	-0.063019	0.2626	-0.00885	-0.027924	-0.63065	0.9848	-0.033569	-0.36331	-0.011292	0.13412	-0.018768	-0.002289	-0.008545	0.30487	-0.013885	0.38391	-0.71167	-0.001221	-0.014038
46.194	0.003357	-0.99106	-0.023499	0.006409	0.012665	-0.018616	0.037689	-0.022736	0.30426	-0.018005	-0.14648	-0.014343	-0.13733	0.054932	0.13962	-0.004578	0.004883	-0.64896	0.23895	0.12802	-0.36102	0.008698	0.28427	0.02655	0.001678	-0.003357	0.40771	-0.016327	-0.10025	-0.45441	-0.002899	-0.019226
46.195	-0.007172	-0.99289	-0.019531	-0.00885	0.009155	-0.012207	0.14481	-0.040131	0.29175	-0.006561	-0.2005	-0.01297	-0.20599	0.1532	1.4069	-0.003815	0.049896	-0.68909	-0.73639	0.10498	-0.47653	0.002899	0.62912	-0.035706	-0.06424	-0.019989	0.50079	-0.015564	-0.3389	0.053253	-0.003052	-0.018463
46.196	-0.001526	-1.0191	-0.010071	-0.007019	-0.007019	-0.036316	0.18723	-0.040131	0.27832	-0.031433	-0.30472	-0.018463	-0.2124	0.24643	0.58441	-0.016632	0.055542	-0.81116	-0.40482	0.049896	-0.24735	0.012207	0.75882	0.060272	0.036926	-0.025024	0.34515	-0.007477	-0.18051	-0.054474	-0.00412	-0.022888
46.197	-0.005493	-1.024	0.00946	0.006256	0.010681	-0.035706	0.17944	-0.035248	0.27115	-0.075226	-0.039673	-0.010071	-0.11215	0.27603	0.16251	-0.003967	-0.003052	-1.1363	-0.79117	-0.060577	0.001221	0.094757	0.67139	0.11414	-0.015411	-0.016327	0.12817	-0.016785	-0.045013	-0.17746	-0.002441	-0.022125
46.198	-0.010376	-1.0643	0.016022	0.014954	-0.000458	-0.032654	0.19775	-0.019989	0.25543	-0.074615	0.095673	-0.002136	-0.098572	0.2565	0.22003	0.005493	-0.028076	-1.3496	-0.91965	-0.053101	0.30701	0.02594	0.63004	0.045624	-0.14145	-0.013428	-0.17883	-0.030823	-0.007172	-0.26138	-0.00412	-0.020142
46.199	-0.006714	-1.0629	0.037384	-0.005188	0.007629	-0.037079	0.22018	-0.019226	0.26428	-0.033875	0.15839	-0.005035	-0.20508	0.22385	0.29953	0.001068	-0.021057	-1.3712	-0.45776	-0.032959	-0.015106	0.11627	0.70145	-0.026245	-0.22858	-0.005798	-0.59555	-0.019989	-0.04425	0.001678	-0.009155	-0.014343
46.2	-0.00946	-1.0121	0.027466	-0.021973	-0.006104	-0.049591	0.14832	-0.015259	0.26398	-0.049286	0.25101	-0.00473	-0.18402	0.13412	0.6749	-0.00946	-0.053558	-1.1639	-0.98114	-0.010681	-0.44235	0.25269	0.50262	0.078125	-0.083466	-0.011597	-0.95215	-0.007324	-0.1236	0.27191	0.00061	-0.005493
46.201	-0.01358	-1.0228	0.038452	-0.012207	-0.000305	-0.038147	0.023346	-0.005341	0.22644	-0.13336	0.13901	-0.004272	0.024109	0.12894	-0.8902	-0.01297	-0.066071	-1.1711	-0.91339	-0.005341	-0.39902	0.33798	0.012207	0.98846	0.22156	-0.030212	-0.88348	0.010071	-0.11231	0.34012	-0.002289	-0.011444
46.202	-0.02182	-1.05	0.049744	-0.02182	0.014038	-0.027008	-0.086365	-0.00946	0.21301	-0.1622	-0.052185	-0.00412	0.10925	0.12436	-0.74265	0.002747	-0.072937	-1.0435	-0.70282	0.014648	-0.019226	0.15427	-0.052032	1.1977	0.13947	-0.046234	-0.21393	-0.003815	-0.018463	0.086212	-0.001831	-0.011292
46.203	-0.019531	-1.0809	0.044861	-0.002441	0.023041	-0.028229	-0.11185	-0.006256	0.21103	-0.12909	-0.17258	-0.004425	0.055237	0.060577	-0.94513	-0.003967	-0.059357	-0.79849	-0.60242	0.031281	0.39429	0.11765	-0.13275	0.35385	0.2066	-0.042877	0.41702	-0.005646	0.089417	-0.37186	0.000153	-0.010986
46.204	-0.025024	-1.091	0.023499	-0.001068	0.001984	-0.010834	-0.085602	-0.005493	0.20035	-0.072937	-0.1973	0.008698	-0.020752	-0.060577	-0.29999	-0.018005	-0.040131	-0.54901	-0.79773	0.005798	0.22675	0.020447	-0.20279	-0.015106	0.25833	-0.052948	0.43655	-0.005646	0.12711	-0.63065	-0.004578	-0.01236
46.205	-0.021667	-1.0754	0.021973	-0.018768	0.006409	-0.016785	-0.057373	-0.006866	0.17761	-0.032196	-0.17746	-0.004578	-0.079956	-0.067596	-0.63263	-0.0177	-0.009766	-0.44342	0.70786	-0.11917	0.24857	0.025787	-0.21454	-0.17609	0.45242	-0.040588	0.44327	-0.031433	0.2449	-0.71686	-0.002594	-0.01236
46.206	-0.014038	-1.069	0.027161	-0.021667	0.006866	-0.01358	-0.076599	-0.004578	0.15289	-0.017548	-0.22568	-0.011597	-0.12817	-0.041351	-0.72891	-0.00885	-0.006104	-0.41046	1.1951	-0.17929	0.36468	0.19165	-0.19501	-0.40955	0.2298	-0.0177	0.78262	-0.14664	0.15472	-0.39047	-0.002747	-0.022888
46.207	-0.017395	-1.0732	0.026093	-0.009613	-0.003357	0.001984	-0.077057	-0.002289	0.15595	-0.001373	-0.23605	-0.008087	-0.13794	0.054016	-0.73852	-0.007477	-0.021973	-0.50812	0.085297	-0.18463	0.08255	0.31845	-0.16556	-0.47775	-0.054626	0.024719	0.19302	-0.42206	0.298	0.084991	-0.002594	-0.016937
46.208	-0.007477	-1.0846	0.019531	0.008698	0.001221	0.013428	-0.11322	-0.006561	0.15396	0.045013	-0.12558	0.008698	-0.20371	0.031281	-0.23865	0.013123	-0.02243	-0.66589	-1.4388	-0.090332	-0.033264	0.30868	-0.22766	-0.2301	-0.2359	-0.009003	-1.6434	0.053101	0.36209	0.54077	-0.001831	-0.013885
46.209	-0.00061	-1.0858	0.018768	0.002594	-0.007782	-0.002441	-0.13611	-0.002136	0.13611	0.033875	0.16205	-0.003967	-0.22964	0.017548	0.40146	0.012207	0.005188	-0.63355	-0.6456	0.013885	-0.09613	0.22171	-0.26291	0.064392	-0.003967	-0.02121	-1.4232	0.22461	0.33966	1.2871	-0.001678	-0.010223
46.21	0.001526	-1.0396	0.009918	0.023804	-0.010071	0.015564	-0.18295	-0.003204	0.12528	0.001373	0.41626	-0.007935	-0.13794	0.098267	0.32837	0.028534	0.00473	-0.69885	-0.97	0.13473	-0.31738	0.15457	-0.22156	0.065918	0.089417	0.004272	-0.69733	0.20874	0.3035	1.0349	-0.002136	-0.005341
46.211	0.016632	-0.98602	0.013885	0.037384	0.003052	-0.001831	-0.14023	0.000763	0.10757	-0.035553	0.08255	-0.003815	-0.026703	0.11902	0.68527	0.020142	0.014343	-0.86487	-0.48218	0.19363	-0.17868	0.041504	-0.011597	-0.14328	0.038147	0.02121	-0.31433	0.10376	0.21439	0.53757	-0.003052	-0.006714
46.212	0.011902	-0.92941	0.022278	0.036926	0.004272	-0.006409	-0.10513	-0.001984	0.083313	-0.037537	-0.30731	-0.010834	0.005035	0.10925	0.47424	0.020752	0.014343	-1.0403	-0.036011	0.23529	-0.044861	-0.10208	0.013885	-0.17883	-0.012817	0.014648	0.016937	0.028076	-0.20065	0.625	-0.00061	-0.014343
